<?xml version="1.0" encoding="UTF-8" standalone="no"?>
<!-- Created with Inkscape (http://www.inkscape.org/) -->

<svg
   xmlns:dc="http://purl.org/dc/elements/1.1/"
   xmlns:cc="http://creativecommons.org/ns#"
   xmlns:rdf="http://www.w3.org/1999/02/22-rdf-syntax-ns#"
   xmlns:svg="http://www.w3.org/2000/svg"
   xmlns="http://www.w3.org/2000/svg"
   xmlns:sodipodi="http://sodipodi.sourceforge.net/DTD/sodipodi-0.dtd"
   xmlns:inkscape="http://www.inkscape.org/namespaces/inkscape"
   width="32px"
   height="32px"
   id="svg3000"
   version="1.1"
   inkscape:version="0.48.1 "
   sodipodi:docname="New document 2">
  <defs
     id="defs3002" />
  <sodipodi:namedview
     id="base"
     pagecolor="#ffffff"
     bordercolor="#666666"
     borderopacity="1.0"
     inkscape:pageopacity="0.0"
     inkscape:pageshadow="2"
     inkscape:zoom="11.197802"
     inkscape:cx="16"
     inkscape:cy="16"
     inkscape:current-layer="layer1"
     showgrid="true"
     inkscape:grid-bbox="true"
     inkscape:document-units="px"
     inkscape:window-width="1280"
     inkscape:window-height="779"
     inkscape:window-x="-4"
     inkscape:window-y="-4"
     inkscape:window-maximized="1" />
  <metadata
     id="metadata3005">
    <rdf:RDF>
      <cc:Work
         rdf:about="">
        <dc:format>image/svg+xml</dc:format>
        <dc:type
           rdf:resource="http://purl.org/dc/dcmitype/StillImage" />
        <dc:title></dc:title>
      </cc:Work>
    </rdf:RDF>
  </metadata>
  <g
     id="layer1"
     inkscape:label="Layer 1"
     inkscape:groupmode="layer">
    <path
       sodipodi:type="arc"
       style="fill:#ff6600;fill-rule:evenodd;stroke:#000000;stroke-width:1px;stroke-linecap:butt;stroke-linejoin:miter;stroke-opacity:1"
       id="path3177"
       sodipodi:cx="27.545454"
       sodipodi:cy="33.727272"
       sodipodi:rx="15.181818"
       sodipodi:ry="15.727273"
       d="m 42.727272,33.727272 a 15.181818,15.727273 0 1 1 -30.363636,0 15.181818,15.727273 0 1 1 30.363636,0 z"
       transform="matrix(0.71864185,0,0,0.68581314,-4.1225976,-8.0089185)" />
    <path
       sodipodi:type="spiral"
       style="fill:none;stroke:#000000;stroke-width:1px;stroke-linecap:butt;stroke-linejoin:miter;stroke-opacity:1"
       id="path3225"
       sodipodi:cx="12.727273"
       sodipodi:cy="28"
       sodipodi:expansion="1"
       sodipodi:revolution="3"
       sodipodi:radius="5.9363008"
       sodipodi:argument="-18.372211"
       sodipodi:t0="0"
       d="m 12.727273,28 c 0.264366,0.136741 -0.0539,0.423824 -0.227272,0.439394 -0.469842,0.04219 -0.719239,-0.497457 -0.651516,-0.893939 0.121139,-0.709213 0.916208,-1.040759 1.560605,-0.863637 0.945678,0.259933 1.36939,1.339766 1.07576,2.227271 -0.391364,1.182905 -1.764916,1.700905 -2.893939,1.287882 -1.420759,-0.519748 -2.0338819,-2.190796 -1.500003,-3.560605 0.646599,-1.659021 2.617082,-2.367701 4.227271,-1.712125 1.897552,0.772574 2.702047,3.04362 1.924247,4.893938 -0.898001,2.136264 -3.470327,3.036744 -5.560604,2.136368 -2.3751055,-1.023064 -3.3716889,-3.897152 -2.3484903,-6.22727 1.1478742,-2.614041 4.3240633,-3.706813 6.8939363,-2.560612 2.853047,1.272499 4.04207,4.75104 2.772735,7.560603"
       transform="matrix(0.71864185,0,0,0.68581314,1.6265377,-6.1385185)" />
    <path
       sodipodi:type="spiral"
       style="fill:none;stroke:#000000;stroke-width:1px;stroke-linecap:butt;stroke-linejoin:miter;stroke-opacity:1"
       id="path3225-3"
       sodipodi:cx="12.727273"
       sodipodi:cy="28"
       sodipodi:expansion="1"
       sodipodi:revolution="3"
       sodipodi:radius="5.9363008"
       sodipodi:argument="-18.372211"
       sodipodi:t0="0"
       d="m 12.727273,28 c 0.264366,0.136741 -0.0539,0.423824 -0.227272,0.439394 -0.469842,0.04219 -0.719239,-0.497457 -0.651516,-0.893939 0.121139,-0.709213 0.916208,-1.040759 1.560605,-0.863637 0.945678,0.259933 1.36939,1.339766 1.07576,2.227271 -0.391364,1.182905 -1.764916,1.700905 -2.893939,1.287882 -1.420759,-0.519748 -2.0338819,-2.190796 -1.500003,-3.560605 0.646599,-1.659021 2.617082,-2.367701 4.227271,-1.712125 1.897552,0.772574 2.702047,3.04362 1.924247,4.893938 -0.898001,2.136264 -3.470327,3.036744 -5.560604,2.136368 -2.3751055,-1.023064 -3.3716889,-3.897152 -2.3484903,-6.22727 1.1478742,-2.614041 4.3240633,-3.706813 6.8939363,-2.560612 2.853047,1.272499 4.04207,4.75104 2.772735,7.560603"
       transform="matrix(0.71864185,0,0,0.68581314,11.072239,-6.4243255)" />
    <path
       style="fill:#000000"
       id="path4021"
       d="m 12.00003,22.387442 c 0.03097,-0.282234 0.07998,-0.561158 0.173949,-0.830638 0.1149,-0.281945 0.346508,-0.494399 0.570129,-0.700659 0.183015,-0.177437 0.342784,-0.371672 0.527693,-0.547709 0.227598,-0.188375 0.472578,-0.355984 0.72393,-0.51397 0.847564,-0.481002 1.671968,-1.069745 2.63857,-1.304294 0.380299,-0.08804 0.772505,-0.09445 1.161603,-0.100247 0.366419,-0.0054 0.732879,-0.0044 1.099318,-0.002 0.375524,0.0011 0.75104,0.0026 1.126565,0.0014 0.257874,-0.0012 0.515746,-0.0024 0.773621,-0.0032 0,0 -1.55405,1.077499 -1.55405,1.077499 l 0,0 c -0.254771,-7.54e-4 -0.509541,-0.0019 -0.764308,-0.0034 -0.375435,-0.0018 -0.750869,-8.91e-4 -1.126306,-0.0021 -0.364,3.33e-4 -0.728053,-0.0033 -1.092008,0.0034 -0.381278,0.01336 -0.764676,0.03305 -1.132948,0.137341 -0.183708,0.05639 -0.356504,0.121893 -0.530335,0.202059 -0.05237,0.02415 -0.206261,0.102542 -0.156143,0.07436 1.207179,-0.678717 2.01447,-1.096284 1.337912,-0.744992 -0.245159,0.154062 -0.493118,0.303574 -0.716681,0.48632 -0.216914,0.151075 -0.378092,0.348493 -0.545899,0.54615 -0.217542,0.187924 -0.443358,0.383253 -0.598092,0.622074 -0.112874,0.243625 -0.164751,0.498024 -0.189616,0.762827 0,0 -1.726904,0.839706 -1.726904,0.839706 z"
       inkscape:connector-curvature="0" />
  </g>
</svg>
