<?xml version="1.0" encoding="UTF-8" standalone="no"?>
<svg
   xmlns:dc="http://purl.org/dc/elements/1.1/"
   xmlns:cc="http://creativecommons.org/ns#"
   xmlns:rdf="http://www.w3.org/1999/02/22-rdf-syntax-ns#"
   xmlns:svg="http://www.w3.org/2000/svg"
   xmlns="http://www.w3.org/2000/svg"
   xmlns:sodipodi="http://sodipodi.sourceforge.net/DTD/sodipodi-0.dtd"
   xmlns:inkscape="http://www.inkscape.org/namespaces/inkscape"
   width="100%"
   height="100%"
   viewBox="0 0 88 87.999"
   id="svg2"
   version="1.1"
   inkscape:version="0.48.1 "
   sodipodi:docname="qgn_menu_S60Uptime.svg">
  <metadata
     id="metadata84">
    <rdf:RDF>
      <cc:Work
         rdf:about="">
        <dc:format>image/svg+xml</dc:format>
        <dc:type
           rdf:resource="http://purl.org/dc/dcmitype/StillImage" />
      </cc:Work>
    </rdf:RDF>
  </metadata>
  <defs
     id="defs82" />
  <sodipodi:namedview
     pagecolor="#ffffff"
     bordercolor="#666666"
     borderopacity="1"
     objecttolerance="10"
     gridtolerance="10"
     guidetolerance="10"
     inkscape:pageopacity="0"
     inkscape:pageshadow="2"
     inkscape:window-width="1280"
     inkscape:window-height="779"
     id="namedview80"
     showgrid="false"
     inkscape:zoom="2.9886703"
     inkscape:cx="44"
     inkscape:cy="43.9995"
     inkscape:window-x="-4"
     inkscape:window-y="-4"
     inkscape:window-maximized="1"
     inkscape:current-layer="g4" />
  <g
     id="g4">
    <path
       sodipodi:type="spiral"
       style="fill:none;stroke:#000000;stroke-width:1px;stroke-linecap:butt;stroke-linejoin:miter;stroke-opacity:1"
       id="path3061"
       sodipodi:cx="22.083399"
       sodipodi:cy="27.436951"
       sodipodi:expansion="1"
       sodipodi:revolution="3"
       sodipodi:radius="16.799967"
       sodipodi:argument="-18.050074"
       sodipodi:t0="0"
       d="m 22.083399,27.436951 c 0.587165,0.603942 -0.524415,1.08945 -1.003792,0.975907 -1.29908,-0.307696 -1.485059,-1.979826 -0.948023,-2.98349 0.960633,-1.79532 3.392026,-1.97298 4.963189,-0.920139 2.305746,1.545086 2.47568,4.823497 0.892255,6.942887 -2.110456,2.824814 -6.261826,2.984696 -8.922586,0.864371 -3.348296,-2.668212 -3.496983,-7.703426 -0.836487,-10.902285 3.222217,-3.874247 9.14687,-4.011164 12.881984,-0.808602 4.401703,3.774109 4.526536,10.591462 0.780718,14.861682 -4.324695,4.930138 -12.036823,5.042702 -16.841381,0.752834 -5.459245,-4.87442 -5.5594225,-13.482721 -0.72495,-18.82108 5.423548,-5.988831 14.929014,-6.076546 20.800779,-0.697065 6.518772,5.972243 6.593971,16.375601 0.669181,22.780477" />
    <path
       sodipodi:type="spiral"
       style="fill:none;stroke:#000000;stroke-width:1px;stroke-linecap:butt;stroke-linejoin:miter;stroke-opacity:1"
       id="path3063"
       sodipodi:cx="52.197124"
       sodipodi:cy="22.083399"
       sodipodi:expansion="1"
       sodipodi:revolution="3"
       sodipodi:radius="15.643973"
       sodipodi:argument="-18.124689"
       sodipodi:t0="0"
       d="m 52.197124,22.083399 c 0.587166,0.520061 -0.411345,1.048067 -0.864376,0.975907 -1.227684,-0.195548 -1.516459,-1.735378 -1.087438,-2.704659 0.767418,-1.733818 3.012876,-2.067573 4.544943,-1.19897 2.24837,1.27471 2.633747,4.307245 1.3105,6.385226 -1.763679,2.769623 -5.607542,3.206263 -8.225509,1.422032 -3.294445,-2.245274 -3.782044,-6.91065 -1.533563,-10.065793 2.723212,-3.821301 8.215339,-4.359712 11.906076,-1.645094 4.349407,3.199085 4.938566,9.521012 1.756625,13.74636 -3.673676,4.878331 -10.827342,5.518209 -15.586643,1.868156 -5.40782,-4.147423 -6.098405,-12.134135 -1.979687,-17.426927 4.62058,-5.9377121 13.441264,-6.6790027 19.26721,-2.091218 6.467904,5.093312 7.259902,14.748647 2.202749,21.107493"
       transform="translate(5.0189544,4.6843571)" />
    <path
       style="fill:#000000;fill-opacity:1;fill-rule:nonzero;stroke:none"
       id="path3077"
       d="m 15.523281,74.457399 c 0.15717,-1.322007 0.255945,-2.647781 0.322344,-3.977168 0.08106,-2.107666 0.09074,-4.217121 0.08539,-6.326055 -0.0086,-1.47406 -0.02975,-2.948024 -0.0488,-4.421984 -0.0055,-1.09019 0.304452,-1.742373 1.135227,-2.424831 1.594413,-0.887684 3.151226,-1.846552 4.783238,-2.663052 0.198905,-0.09951 1.789551,-0.258953 1.895392,-0.26749 1.448861,-0.116868 2.906967,-0.14306 4.35933,-0.175292 4.339881,-0.03408 8.679966,-5.01e-4 13.019927,9.84e-4 4.221441,0.01239 8.442811,-0.0063 12.66413,-0.03631 2.149204,-0.02009 4.2984,-0.03967 6.447677,-0.04902 1.375927,-0.0058 2.75186,-0.0055 4.127772,-0.01433 0.837426,0.0057 1.540934,-0.33091 2.276934,-0.668755 -1.32913,0.757135 -2.655479,1.519171 -3.987389,2.271405 -0.06686,0.03776 0.219286,-0.09273 0.406503,-0.323961 0.175736,-0.217045 0.233015,-0.470449 0.294247,-0.735036 0.132489,-1.012009 0.100932,-2.03881 0.109192,-3.057604 0.0067,-1.396928 -0.0011,-2.793808 -0.0053,-4.190726 0.0036,-1.254916 -0.0099,-2.509767 -0.01338,-3.764649 -0.0078,-0.898121 0.0017,-1.796247 -5.96e-4,-2.694379 0,0 4.371639,-2.227447 4.371639,-2.227447 l 0,0 c -0.0023,0.898333 0.0071,1.796661 -6.85e-4,2.694984 -0.0033,1.258665 -0.01652,2.517301 -0.01024,3.775999 -4.71e-4,1.395158 -0.0021,2.790284 0.01463,4.185376 0.01339,1.034488 0.02484,2.069668 -0.01096,3.103835 -0.315165,2.588258 -2.382396,2.51638 -5.046265,4.038656 -0.752212,0.331219 -1.536901,0.488746 -2.363071,0.472849 -1.362831,-0.0089 -2.725683,-0.0083 -4.088527,-0.01422 -2.103104,-0.0094 -4.206119,-0.02956 -6.309125,-0.05191 -4.179416,-0.0346 -8.358888,-0.05995 -12.538476,-0.05503 -4.382842,-0.0039 -8.766688,-0.0054 -13.148311,0.110047 -1.472116,0.05557 -2.949698,0.08991 -4.412733,0.27939 -2.198098,0.284672 -4.561057,1.761863 1.738846,-1.745639 -0.901191,0.523384 -1.259842,0.91836 -1.335523,1.997054 -0.017,1.490905 -0.03571,2.98179 -0.04809,4.472738 -0.01316,2.107096 -0.0033,4.214421 -0.03868,6.321299 -0.03109,1.305281 -0.101361,2.607897 -0.225572,3.90781 0,0 -4.420715,2.252467 -4.420715,2.252467 z"
       inkscape:connector-curvature="0" />
    <rect
       style="fill:#ff6600;fill-rule:evenodd;stroke:#000000;stroke-width:1px;stroke-linecap:butt;stroke-linejoin:miter;stroke-opacity:1"
       id="rect3000"
       width="79.299477"
       height="79.968674"
       x="4.6843576"
       y="5.0189538" />
    <path
       transform="translate(2.710821,-0.450464)"
       sodipodi:type="spiral"
       style="fill:none;stroke:#000000;stroke-width:1px;stroke-linecap:butt;stroke-linejoin:miter;stroke-opacity:1"
       id="path3061-1"
       sodipodi:cx="22.083399"
       sodipodi:cy="27.436951"
       sodipodi:expansion="1"
       sodipodi:revolution="3"
       sodipodi:radius="16.799967"
       sodipodi:argument="-18.050074"
       sodipodi:t0="0"
       d="m 22.083399,27.436951 c 0.587165,0.603942 -0.524415,1.08945 -1.003792,0.975907 -1.29908,-0.307696 -1.485059,-1.979826 -0.948023,-2.98349 0.960633,-1.79532 3.392026,-1.97298 4.963189,-0.920139 2.305746,1.545086 2.47568,4.823497 0.892255,6.942887 -2.110456,2.824814 -6.261826,2.984696 -8.922586,0.864371 -3.348296,-2.668212 -3.496983,-7.703426 -0.836487,-10.902285 3.222217,-3.874247 9.14687,-4.011164 12.881984,-0.808602 4.401703,3.774109 4.526536,10.591462 0.780718,14.861682 -4.324695,4.930138 -12.036823,5.042702 -16.841381,0.752834 -5.459245,-4.87442 -5.5594225,-13.482721 -0.72495,-18.82108 5.423548,-5.988831 14.929014,-6.076546 20.800779,-0.697065 6.518772,5.972243 6.593971,16.375601 0.669181,22.780477" />
    <path
       sodipodi:type="spiral"
       style="fill:none;stroke:#000000;stroke-width:1px;stroke-linecap:butt;stroke-linejoin:miter;stroke-opacity:1"
       id="path3063-7"
       sodipodi:cx="52.197124"
       sodipodi:cy="22.083399"
       sodipodi:expansion="1"
       sodipodi:revolution="3"
       sodipodi:radius="15.643973"
       sodipodi:argument="-18.124689"
       sodipodi:t0="0"
       d="m 52.197124,22.083399 c 0.587166,0.520061 -0.411345,1.048067 -0.864376,0.975907 -1.227684,-0.195548 -1.516459,-1.735378 -1.087438,-2.704659 0.767418,-1.733818 3.012876,-2.067573 4.544943,-1.19897 2.24837,1.27471 2.633747,4.307245 1.3105,6.385226 -1.763679,2.769623 -5.607542,3.206263 -8.225509,1.422032 -3.294445,-2.245274 -3.782044,-6.91065 -1.533563,-10.065793 2.723212,-3.821301 8.215339,-4.359712 11.906076,-1.645094 4.349407,3.199085 4.938566,9.521012 1.756625,13.74636 -3.673676,4.878331 -10.827342,5.518209 -15.586643,1.868156 -5.40782,-4.147423 -6.098405,-12.134135 -1.979687,-17.426927 4.62058,-5.9377121 13.441264,-6.6790027 19.26721,-2.091218 6.467904,5.093312 7.259902,14.748647 2.202749,21.107493"
       transform="translate(7.729775,4.233893)" />
    <path
       style="fill:#000000;fill-opacity:1;fill-rule:nonzero;stroke:none"
       id="path3077-4"
       d="m 18.234102,74.006935 c 0.15717,-1.322007 0.255945,-2.647781 0.322344,-3.977168 0.08106,-2.107666 0.09074,-4.217121 0.08539,-6.326055 -0.0086,-1.47406 -0.02975,-2.948024 -0.0488,-4.421984 -0.0055,-1.09019 0.304452,-1.742373 1.135227,-2.424831 1.594412,-0.887684 3.151225,-1.846552 4.783237,-2.663052 0.198905,-0.09951 1.789551,-0.258953 1.895392,-0.26749 1.448861,-0.116868 2.906967,-0.14306 4.35933,-0.175292 4.339881,-0.03408 8.679966,-5.01e-4 13.019927,9.84e-4 4.221441,0.01239 8.442811,-0.0063 12.66413,-0.03631 2.149204,-0.02009 4.2984,-0.03967 6.447677,-0.04902 1.375927,-0.0058 2.75186,-0.0055 4.127772,-0.01433 0.837426,0.0057 1.540934,-0.33091 2.276934,-0.668755 -1.32913,0.757135 -2.655479,1.519171 -3.987389,2.271405 -0.06686,0.03776 0.219286,-0.09273 0.406503,-0.323961 0.175736,-0.217045 0.233015,-0.470449 0.294247,-0.735036 0.132489,-1.012009 0.100932,-2.03881 0.109192,-3.057604 0.0067,-1.396928 -0.0011,-2.793808 -0.0053,-4.190726 0.0036,-1.254916 -0.0099,-2.509767 -0.01338,-3.764649 -0.0078,-0.898121 0.0017,-1.796247 -5.96e-4,-2.694379 0,0 4.371639,-2.227447 4.371639,-2.227447 l 0,0 c -0.0023,0.898333 0.0071,1.796661 -6.85e-4,2.694984 -0.0033,1.258665 -0.01652,2.517301 -0.01024,3.775999 -4.71e-4,1.395158 -0.0021,2.790284 0.01463,4.185376 0.01339,1.034488 0.02484,2.069668 -0.01096,3.103835 -0.315165,2.588258 -2.382396,2.51638 -5.046265,4.038656 -0.752212,0.331219 -1.536901,0.488746 -2.363071,0.472849 -1.362831,-0.0089 -2.725683,-0.0083 -4.088527,-0.01422 -2.103104,-0.0094 -4.206119,-0.02956 -6.309125,-0.05191 -4.179416,-0.0346 -8.358888,-0.05995 -12.538476,-0.05503 -4.382842,-0.0039 -8.766688,-0.0054 -13.148311,0.110047 -1.472116,0.05557 -2.949698,0.08991 -4.412733,0.27939 -2.198097,0.284672 -4.561056,1.761863 1.738846,-1.745639 -0.901191,0.523384 -1.259842,0.91836 -1.335523,1.997054 -0.017,1.490905 -0.03571,2.98179 -0.04809,4.472738 -0.01316,2.107096 -0.0033,4.214421 -0.03868,6.321299 -0.03109,1.305281 -0.101361,2.607897 -0.225572,3.90781 0,0 -4.420714,2.252467 -4.420714,2.252467 z"
       inkscape:connector-curvature="0" />
  </g>
</svg>
